<svg width="122" height="28" viewBox="0 0 122 28" fill="none" xmlns="http://www.w3.org/2000/svg">
<g clip-path="url(#clip0_1345_1516)">
<path d="M47.9696 5.21402C47.9696 5.81687 47.7611 6.31893 47.3491 6.70255C46.9337 7.0897 46.3819 7.2877 45.7083 7.2877C45.0347 7.2877 44.4832 7.0897 44.0658 6.70255C43.6539 6.31893 43.4453 5.81687 43.4453 5.21402C43.4453 4.61119 43.6592 4.09145 44.08 3.70429C44.5096 3.31007 45.0418 3.11914 45.7083 3.11914C46.3748 3.11914 46.9053 3.31007 47.3349 3.70429C47.7557 4.09145 47.9696 4.59882 47.9696 5.21402Z" fill="#FF9443"/>
<path d="M121.978 17.424C121.978 18.0286 121.774 18.5148 121.357 18.9125C120.934 19.305 120.399 19.4959 119.714 19.4959C119.03 19.4959 118.489 19.2997 118.075 18.9125C117.657 18.5148 117.453 18.0286 117.453 17.424C117.453 16.8194 117.667 16.2997 118.088 15.9143C118.523 15.5148 119.055 15.3203 119.714 15.3203C120.045 15.3203 120.344 15.3698 120.614 15.467C120.883 15.566 121.125 15.7145 121.343 15.9143C121.764 16.2997 121.978 16.8088 121.978 17.424Z" fill="#FF9443"/>
<path d="M54.9149 1.69531H51.1172V19.957H54.9149V1.69531Z" fill="#FF9443"/>
<path d="M84.9355 6.89515L84.6898 8.56223C84.6793 8.6347 84.6279 8.6948 84.5573 8.71602C84.4883 8.73724 84.4123 8.71602 84.3627 8.66299C83.8571 8.10613 83.2365 7.67122 82.5151 7.37069C81.7884 7.07016 80.9875 6.91637 80.1371 6.91637C78.9506 6.91637 77.8864 7.19744 76.9742 7.75078C76.0387 8.32356 75.3334 9.09257 74.8207 10.1038C74.3026 11.1044 74.0391 12.2711 74.0391 13.574C74.0391 14.8769 74.3026 16.0349 74.8207 17.0337C75.3314 18.0431 76.0564 18.8333 76.9742 19.3884C77.8864 19.9418 78.9506 20.2229 80.1371 20.2229C81.8645 20.2229 83.2859 19.6253 84.3627 18.4462C84.4123 18.3932 84.4866 18.3719 84.5573 18.3932C84.6262 18.4126 84.6775 18.471 84.6898 18.5417L84.9267 19.9577H88.2029V6.26758L84.9355 6.89515ZM83.5194 16.1091C82.9006 16.7614 82.0926 17.0903 81.1202 17.0903C80.1477 17.0903 79.3504 16.7561 78.7279 16.0932C78.1216 15.4391 77.814 14.5905 77.814 13.574C77.814 12.5575 78.1216 11.7001 78.7279 11.0478C79.345 10.3884 80.1496 10.056 81.1202 10.056C82.0909 10.056 82.906 10.3831 83.5194 11.0301C84.1365 11.6701 84.4494 12.5257 84.4494 13.574C84.4494 14.6224 84.1365 15.4691 83.5194 16.1091Z" fill="#FF9443"/>
<path d="M96.7744 6.87906V15.2975C96.7744 15.8809 96.9282 16.3264 97.2323 16.6216C97.5328 16.9133 97.9431 17.06 98.454 17.06C98.9313 17.06 99.4017 16.961 99.8596 16.763L100.73 19.5421C99.7658 19.9929 98.6714 20.2227 97.471 20.2227C96.0705 20.2227 94.9974 19.8444 94.1894 19.0665C93.399 18.2975 92.9995 17.03 92.9995 15.2975V7.50666C92.9995 7.45186 92.9748 7.39881 92.9342 7.36346C92.8987 7.33341 92.8545 7.31749 92.8103 7.31749C92.7997 7.31749 92.7909 7.31749 92.7821 7.31927L90.9998 7.58974L90.9805 4.87081L92.8369 4.5915L96.9918 3.98689L115.74 1.23438L115.728 3.849L96.9353 6.69168C96.8433 6.70582 96.7744 6.78537 96.7744 6.87906Z" fill="#FF9443"/>
<path d="M96.7747 0V3.00002L93 3.55688V0.406602L96.7747 0Z" fill="#FF9443"/>
<path d="M106.258 14.6322H115.763C115.835 14.093 115.874 13.628 115.874 13.248C115.874 11.9751 115.598 10.849 115.059 9.89966C114.516 8.93973 113.752 8.21492 112.722 7.68105C112.221 7.41939 111.663 7.22318 111.054 7.09059C110.446 6.958 109.787 6.89258 109.079 6.89258C107.718 6.89258 106.503 7.17543 105.469 7.73232C104.451 8.28211 103.637 9.07762 103.054 10.0959C102.479 11.1018 102.188 12.2792 102.188 13.5962C102.188 14.9133 102.483 16.1507 103.068 17.146C103.655 18.1413 104.497 18.9192 105.57 19.4548C106.659 19.9993 107.966 20.2751 109.458 20.2751C110.596 20.2751 111.672 20.0913 112.653 19.7271C113.593 19.3859 114.394 18.9174 115.098 18.2969L113.16 16.2179C112.725 16.5414 112.214 16.7925 111.64 16.9692C111.005 17.169 110.342 17.2716 109.67 17.2716C108.682 17.2716 107.865 17.0488 107.244 16.6086C106.606 16.1702 106.21 15.5797 106.072 14.8567C106.061 14.8019 106.076 14.7435 106.111 14.7011C106.148 14.6569 106.201 14.6322 106.258 14.6322ZM107.06 10.4901C107.615 10.0411 108.34 9.81306 109.216 9.81306C110.091 9.81306 110.833 10.0411 111.373 10.4919C111.919 10.9568 112.223 11.6021 112.28 12.41C112.283 12.4613 112.264 12.5143 112.228 12.5514C112.193 12.5903 112.144 12.6115 112.091 12.6115H106.288C106.235 12.6115 106.183 12.5903 106.148 12.5514C106.113 12.5108 106.095 12.4595 106.099 12.4065C106.171 11.5968 106.495 10.9515 107.06 10.4901Z" fill="#FF9443"/>
<path d="M32.5691 2.50714L31.2978 4.81419C30.8364 4.64977 30.3909 4.57199 29.9401 4.57199C29.2946 4.57199 28.7783 4.74877 28.4035 5.09881C28.027 5.44883 27.836 5.98979 27.836 6.70399V6.71284C27.8272 6.73582 27.8218 6.76056 27.8218 6.78709V10.4059L24.0312 10.9486V6.75704C24.0312 5.63445 24.2787 4.6816 24.765 3.92497C25.251 3.17894 25.8894 2.62206 26.6674 2.26849C27.4558 1.90432 28.3116 1.72754 29.2822 1.72754C30.5606 1.72754 31.6657 1.98918 32.5691 2.50714Z" fill="#FF9443"/>
<path d="M42.7478 2.2257L41.5085 4.54864C40.9427 4.22689 40.3858 4.06425 39.8501 4.06425C39.2472 4.06425 38.7609 4.2375 38.4037 4.57517C38.0326 4.92167 37.845 5.45731 37.845 6.16622V8.97531L34.0312 9.5198V7.11908C34.042 7.0961 34.0474 7.07134 34.0474 7.04483V6.16622C34.0474 5.0401 34.286 4.08899 34.7581 3.34121C35.2336 2.60049 35.8701 2.04185 36.6517 1.67944C37.4455 1.31881 38.3047 1.13672 39.2064 1.13672C40.589 1.13672 41.7789 1.50266 42.7478 2.2257Z" fill="#FF9443"/>
<path d="M41.689 9.4043L41.6748 12.2434L38.0077 12.7879C37.9158 12.8021 37.8468 12.8816 37.8468 12.9753V19.9565H34.0492V13.587C34.0492 13.5322 34.0245 13.4809 33.9837 13.4438C33.9413 13.4084 33.8866 13.3925 33.8316 13.3996L27.9988 14.2623C27.9051 14.2765 27.8362 14.356 27.8362 14.4497V19.9565H24.0314V15.0702C24.0314 15.0154 24.0067 14.9624 23.9659 14.927C23.9236 14.8917 23.8686 14.8757 23.8138 14.8828L20.7127 15.3442C20.6173 15.3584 20.5465 15.4432 20.5518 15.5405L20.7534 19.9105L16.5048 19.8964L16.678 16.161C16.6798 16.1044 16.6568 16.0496 16.6144 16.0125C16.5737 15.9736 16.5154 15.9559 16.4606 15.9647L7.60086 17.2818C7.55311 17.2889 7.50893 17.3136 7.47886 17.3525L5.5234 19.8664L0 19.9017C0.150284 19.7196 0.30764 19.5358 0.464996 19.3519C0.740813 19.0249 1.01663 18.7031 1.30305 18.3708L1.31543 18.3566C1.67611 17.9359 2.03503 17.5169 2.38686 17.0997C2.59903 16.8469 2.81298 16.5994 3.02515 16.3501C3.23553 16.1026 3.44594 15.8569 3.65811 15.6076C4.1178 15.0649 4.5881 14.5116 5.05662 13.9671C5.30416 13.6772 5.55169 13.3872 5.79921 13.0955C6.04321 12.8074 6.28719 12.521 6.53295 12.2346C6.78402 11.9376 7.03508 11.6424 7.28615 11.3472C7.53367 11.0554 7.78298 10.7655 8.0305 10.4721L9.50504 8.74666C9.73137 8.47972 9.95767 8.21455 10.184 7.94937C10.4191 7.67358 10.6543 7.39781 10.8912 7.12026C11.2979 6.63587 11.7151 6.14617 12.1306 5.66178C12.3516 5.40369 12.5726 5.14558 12.7954 4.88749C13.0146 4.63114 13.2356 4.37481 13.4549 4.1167C13.5539 4.00003 13.6511 3.88335 13.7484 3.7649C14.0454 3.40427 14.353 3.03303 14.6908 2.70066C15.5518 1.85564 16.7753 1.49323 17.8202 1.78316C17.8396 1.7867 17.8697 1.792 17.8785 1.7973C17.8892 1.80084 17.898 1.80614 17.9086 1.80791C18.2552 1.91221 18.5805 2.08546 18.8757 2.32059C19.5706 2.87215 19.9931 3.69595 20.0373 4.57987L20.3609 11.4727L16.8778 11.9677L17.1696 5.79261C17.1766 5.65471 17.1024 5.5345 16.9768 5.48501C16.8513 5.4355 16.7099 5.47264 16.6197 5.58225L10.3626 13.6453C10.3148 13.7072 10.3095 13.7903 10.3484 13.8575C10.3873 13.9229 10.4633 13.96 10.5394 13.9494L16.6745 13.0478C16.7116 13.0425 16.7452 13.0266 16.77 13.0054L20.5412 12.4697C20.5642 12.475 20.5907 12.4768 20.6155 12.4733L23.8686 12.0048C23.8864 12.0012 23.9023 11.9977 23.9182 11.9906L26.413 11.6336L28.0379 11.3914L33.8866 10.5446C33.9042 10.541 33.9218 10.5375 33.9377 10.5286L41.689 9.4043Z" fill="#FF9443"/>
<path d="M47.5906 8.51953V19.9574H43.793V9.07994L47.5906 8.51953Z" fill="#FF9443"/>
<path d="M69.1113 18.1628C69.0494 18.1328 69.0069 18.0727 69.0035 18.0037C68.9981 17.933 69.0316 17.8676 69.09 17.8305C69.9264 17.3054 70.554 16.6619 71.0083 15.8629C71.4716 15.0568 71.6961 14.2011 71.6961 13.2483C71.6961 12.2954 71.3178 11.1746 70.6866 10.1298C70.6531 10.0768 70.6494 10.0096 70.676 9.95301C70.7024 9.89468 70.7538 9.85402 70.8156 9.84341L72.7359 9.52874L72.6916 7.06615L68.381 7.73968C68.3333 7.74675 68.2874 7.73614 68.2502 7.71139C67.1664 7.17397 65.8156 6.83984 64.7195 6.83984C63.3279 6.83984 62.1309 7.10502 61.0612 7.65129C60.0058 8.19402 59.173 8.95949 58.586 9.92649C57.9831 10.9041 57.6914 11.9896 57.6914 13.2483C57.6914 14.507 57.9831 15.6932 58.5577 16.6531C59.1395 17.6325 59.9405 18.3697 61.0065 18.9106C62.0673 19.4445 63.3245 19.715 64.7425 19.715C65.7325 19.715 66.4786 19.9059 67.0248 20.2949C67.5837 20.6961 67.8666 21.2725 67.8666 22.008C67.8666 22.7434 67.5607 23.3109 66.9578 23.7493C66.3742 24.17 65.6122 24.384 64.6894 24.384C63.6604 24.384 62.8524 24.1258 62.2866 23.6165C61.7773 23.1517 61.5121 22.5153 61.4945 21.7197L57.8293 22.2395C57.8557 23.263 58.1352 24.1647 58.6567 24.9353C59.2085 25.7539 60.0111 26.3957 61.0419 26.8429C62.0673 27.2883 63.2944 27.5147 64.6894 27.5147C66.0843 27.5147 67.3962 27.2937 68.4536 26.8553C69.5108 26.4221 70.3435 25.7893 70.9288 24.9761C71.5159 24.1559 71.8022 23.2366 71.8022 22.1669C71.8022 21.276 71.5653 20.4752 71.1002 19.784C70.6335 19.1016 69.9634 18.5553 69.1113 18.1628ZM67.0869 15.6508C66.4874 16.25 65.6919 16.5541 64.7212 16.5541C63.7506 16.5541 62.9497 16.2447 62.3467 15.6348C61.749 15.0196 61.4451 14.217 61.4451 13.2483C61.4451 12.2795 61.749 11.4574 62.3485 10.867C62.9514 10.273 63.7487 9.97245 64.7212 9.97245C65.6936 9.97245 66.5087 10.273 67.1028 10.867C67.6967 11.461 67.9974 12.2618 67.9974 13.2483C67.9974 14.2347 67.6915 15.0391 67.0886 15.6508H67.0869Z" fill="#FF9443"/>
</g>
<defs>
<clipPath id="clip0_1345_1516">
<rect width="122" height="27.7077" fill="white"/>
</clipPath>
</defs>
</svg>
