<svg width="17" height="17" viewBox="0 0 17 17" fill="none" xmlns="http://www.w3.org/2000/svg">
<path d="M2.13208 7.94751V11.1279C2.13208 14.3083 3.40708 15.5833 6.5875 15.5833H10.4054C13.5858 15.5833 14.8608 14.3083 14.8608 11.1279V7.94751" stroke="#EF5207" stroke-width="1.5" stroke-linecap="round" stroke-linejoin="round"/>
<path d="M8.49999 8.50002C9.79624 8.50002 10.7525 7.4446 10.625 6.14835L10.1575 1.41669H6.84958L6.37499 6.14835C6.24749 7.4446 7.20374 8.50002 8.49999 8.50002Z" stroke="#EF5207" stroke-width="1.5" stroke-linecap="round" stroke-linejoin="round"/>
<path d="M12.9696 8.50002C14.4004 8.50002 15.4487 7.33835 15.3071 5.9146L15.1087 3.96669C14.8537 2.12502 14.1454 1.41669 12.2896 1.41669H10.1292L10.625 6.3821C10.7454 7.55085 11.8008 8.50002 12.9696 8.50002Z" stroke="#EF5207" stroke-width="1.5" stroke-linecap="round" stroke-linejoin="round"/>
<path d="M3.99498 8.50002C5.16373 8.50002 6.21914 7.55085 6.33248 6.3821L6.48831 4.81669L6.82831 1.41669H4.66789C2.81206 1.41669 2.10373 2.12502 1.84873 3.96669L1.65748 5.9146C1.51581 7.33835 2.56414 8.50002 3.99498 8.50002Z" stroke="#EF5207" stroke-width="1.5" stroke-linecap="round" stroke-linejoin="round"/>
<path d="M8.50002 12.0417C7.3171 12.0417 6.72919 12.6296 6.72919 13.8125V15.5834H10.2709V13.8125C10.2709 12.6296 9.68294 12.0417 8.50002 12.0417Z" stroke="#EF5207" stroke-width="1.5" stroke-linecap="round" stroke-linejoin="round"/>
</svg>
