<svg width="17" height="17" viewBox="0 0 17 17" fill="none" xmlns="http://www.w3.org/2000/svg">
<path d="M2.24542 5.27002L8.5 8.88959L14.7121 5.29125" stroke="#3B2D55" stroke-width="1.5" stroke-linecap="round" stroke-linejoin="round"/>
<path d="M8.5 15.3071V8.88251" stroke="#3B2D55" stroke-width="1.5" stroke-linecap="round" stroke-linejoin="round"/>
<path d="M7.03375 1.75669L3.25125 3.86046C2.39417 4.33504 1.69293 5.52503 1.69293 6.50253V10.5046C1.69293 11.4821 2.39417 12.6721 3.25125 13.1467L7.03375 15.2505C7.84125 15.6967 9.16583 15.6967 9.97333 15.2505L13.7558 13.1467C14.6129 12.6721 15.3142 11.4821 15.3142 10.5046V6.50253C15.3142 5.52503 14.6129 4.33504 13.7558 3.86046L9.97333 1.75669C9.15875 1.30335 7.84125 1.30335 7.03375 1.75669Z" stroke="#3B2D55" stroke-width="1.5" stroke-linecap="round" stroke-linejoin="round"/>
<path d="M12.0417 9.37835V6.78587L5.31958 2.90417" stroke="#3B2D55" stroke-width="1.5" stroke-linecap="round" stroke-linejoin="round"/>
</svg>
