<?xml version="1.0" standalone="no"?>
<!DOCTYPE svg PUBLIC "-//W3C//DTD SVG 20010904//EN"
 "http://www.w3.org/TR/2001/REC-SVG-20010904/DTD/svg10.dtd">
<svg version="1.0" xmlns="http://www.w3.org/2000/svg"
 width="422.000000pt" height="422.000000pt" viewBox="0 0 422.000000 422.000000"
 preserveAspectRatio="xMidYMid meet">
<metadata>
Created by potrace 1.14, written by Peter Selinger 2001-2017
</metadata>
<g transform="translate(0.000000,422.000000) scale(0.100000,-0.100000)"
fill="#000000" stroke="none">
<path d="M3777 3253 c-4 -4 -13 -8 -20 -9 -7 -1 -64 -15 -127 -32 -101 -26
-150 -36 -275 -57 -80 -13 -221 -26 -321 -30 -61 -2 -115 -5 -120 -6 -5 -1
-13 -1 -19 0 -5 0 -82 3 -170 6 -160 6 -210 9 -295 20 -169 21 -217 28 -310
45 -167 30 -188 33 -295 46 -70 8 -366 13 -379 6 -4 -3 -34 -6 -65 -9 -66 -5
-229 -45 -304 -74 -131 -52 -240 -117 -323 -194 -26 -25 -51 -45 -56 -45 -4 0
-8 -4 -8 -9 0 -4 -10 -19 -22 -33 -38 -41 -88 -106 -88 -114 0 -4 -11 -21 -24
-38 -13 -17 -26 -41 -30 -53 -4 -13 -12 -23 -17 -23 -5 0 -8 -3 -7 -7 1 -5 -8
-30 -20 -57 -12 -27 -22 -52 -22 -57 0 -5 -5 -9 -11 -9 -5 0 -7 -5 -4 -10 4
-6 2 -17 -4 -24 -6 -7 -12 -22 -14 -34 -2 -12 -6 -25 -10 -28 -4 -4 -7 -16 -7
-26 0 -10 -6 -18 -12 -18 -10 0 -9 -3 1 -9 10 -6 10 -10 1 -16 -6 -4 -9 -13
-6 -21 3 -8 2 -14 -3 -14 -4 0 -8 -6 -8 -12 -2 -35 -10 -79 -16 -84 -3 -3 -3
-13 0 -22 4 -8 2 -13 -3 -9 -5 3 -10 -9 -10 -26 -2 -63 -4 -68 -16 -61 -10 6
-10 4 0 -8 9 -12 11 -63 2 -63 -1 0 -3 -36 -4 -81 -2 -45 -6 -86 -10 -93 -4
-6 -2 -11 5 -11 7 0 4 -7 -7 -16 -10 -8 -14 -13 -7 -10 8 5 13 -21 15 -96 3
-113 1 -131 -15 -121 -6 3 -7 1 -3 -6 4 -6 12 -8 18 -5 7 4 8 -8 4 -35 -3 -23
-2 -40 3 -37 4 3 8 -1 8 -9 0 -8 -4 -12 -9 -9 -4 3 -8 0 -8 -5 0 -6 4 -11 8
-11 12 0 12 -62 0 -77 -6 -7 -4 -14 3 -19 8 -5 10 -3 4 7 -5 8 -4 11 0 6 12
-10 15 -78 4 -71 -5 3 -6 -2 -3 -10 3 -9 11 -13 16 -10 6 4 5 -2 -1 -14 -8
-15 -8 -21 0 -24 6 -2 12 -29 12 -61 1 -31 5 -57 10 -57 4 0 5 -5 2 -10 -4 -6
-11 -7 -17 -4 -7 4 -8 2 -4 -5 4 -6 12 -9 17 -6 15 10 10 -7 -8 -29 -17 -20
-17 -20 0 -7 9 8 21 11 24 7 4 -4 1 -11 -7 -16 -13 -8 -13 -10 -1 -10 11 0 10
-4 -5 -16 -16 -13 -16 -15 -2 -10 10 3 20 1 23 -4 3 -5 -3 -11 -12 -13 -16 -4
-16 -5 1 -6 13 -1 17 -6 13 -21 -3 -11 0 -20 6 -20 8 0 7 -3 -1 -9 -11 -7 -11
-9 0 -13 17 -7 39 1 33 12 -8 13 45 50 71 50 13 0 24 4 24 10 0 5 8 7 18 4 14
-5 15 -4 2 5 -8 6 -12 11 -7 12 4 1 10 2 15 3 14 3 47 25 36 26 -5 0 -15 -5
-22 -12 -9 -9 -12 -9 -12 -1 0 13 18 26 38 29 6 1 12 -3 12 -9 0 -7 4 -6 9 3
6 8 7 18 5 22 -3 5 2 11 10 14 9 3 13 11 9 17 -4 6 -11 3 -20 -8 -7 -11 -13
-13 -13 -6 0 7 -11 -1 -25 -16 -13 -15 -25 -22 -25 -15 0 6 5 12 11 12 5 0 8
4 4 9 -5 10 19 28 40 30 6 1 10 4 10 9 0 13 16 32 28 32 6 0 3 -6 -8 -13 -14
-11 -15 -16 -5 -22 15 -9 65 -16 56 -8 -3 3 2 12 10 20 11 12 18 12 29 3 12
-10 13 -8 10 9 -4 23 10 29 18 9 4 -10 6 -10 6 0 1 7 5 11 10 8 5 -3 8 2 7 11
0 9 5 18 12 20 6 3 10 -1 9 -9 -2 -7 -2 -10 0 -5 3 4 11 7 18 7 7 0 16 7 19
16 9 24 7 31 -5 11 -8 -13 -14 -15 -30 -7 -15 9 -21 7 -25 -5 -3 -8 -10 -12
-15 -9 -5 3 -7 -1 -6 -8 2 -7 2 -9 -1 -5 -2 5 -13 1 -23 -9 -10 -9 -19 -14
-19 -10 0 4 -11 -6 -24 -21 -20 -23 -27 -26 -38 -15 -11 11 -10 12 4 7 14 -5
16 -2 13 15 -4 19 -2 20 12 8 14 -11 15 -10 9 12 -6 19 -5 21 3 10 10 -13 11
-13 11 0 0 13 1 13 10 0 5 -8 10 -10 10 -4 0 6 11 17 25 24 13 7 21 18 18 24
-3 6 -3 8 2 4 5 -5 24 4 44 19 29 21 32 22 17 5 -11 -12 -14 -22 -8 -22 6 0
20 12 31 26 12 15 21 21 21 13 0 -10 3 -10 12 -1 15 15 28 15 28 1 0 -5 -4 -8
-9 -5 -4 3 -16 -3 -26 -14 -10 -11 -23 -17 -29 -13 -6 3 -7 2 -3 -3 5 -5 13
-10 18 -10 5 -1 10 -2 12 -3 1 -2 16 -4 32 -6 24 -3 27 -2 12 6 -9 6 -21 8
-26 4 -5 -3 -12 -1 -15 4 -9 13 24 23 39 11 8 -6 15 -6 23 2 9 9 12 9 12 0 0
-7 5 -12 10 -12 6 0 3 11 -6 25 -9 14 -20 23 -24 20 -4 -3 -11 2 -14 11 -6 15
-4 15 18 1 28 -19 43 -10 18 10 -9 8 -11 11 -3 7 7 -3 18 0 23 7 8 11 8 10 4
-4 -4 -12 -2 -17 6 -14 7 2 12 10 11 16 -3 10 4 13 23 10 4 0 11 5 16 13 8 10
9 10 5 -2 -2 -8 -10 -14 -16 -12 -6 1 -11 -2 -11 -8 0 -5 6 -10 13 -10 8 0 7
-3 -3 -9 -8 -6 -18 -7 -22 -5 -4 3 -8 0 -8 -5 0 -6 -3 -10 -8 -8 -4 1 -7 -2
-7 -8 0 -15 26 -15 32 1 3 8 9 14 15 14 5 0 6 -6 2 -12 -6 -10 -5 -10 7 -1 10
8 19 9 27 3 8 -7 9 -7 3 1 -5 6 -7 19 -4 28 4 11 1 10 -11 -4 -16 -19 -16 -18
-2 12 15 30 38 54 35 36 -4 -25 4 -31 36 -27 22 2 40 -3 50 -12 8 -9 15 -12
15 -7 0 11 -20 40 -20 30 0 -4 -10 -3 -21 4 -12 6 -19 7 -15 1 4 -6 -2 -8 -14
-5 -11 3 -20 9 -20 12 0 15 13 20 31 11 12 -7 19 -6 22 3 3 6 6 3 6 -8 1 -16
3 -17 10 -5 6 8 8 17 6 20 -2 4 9 6 26 5 18 -1 33 4 39 14 5 9 10 11 10 6 0
-6 -6 -17 -12 -24 -11 -10 -10 -12 2 -11 27 4 40 0 40 -11 0 -5 -5 -7 -12 -3
-17 11 -88 13 -88 3 0 -8 57 -14 82 -10 5 0 8 -5 8 -11 1 -7 7 -2 15 12 12 23
12 26 -7 36 -14 7 -17 14 -9 18 6 4 11 2 11 -3 0 -6 5 -11 11 -11 5 0 7 5 3
12 -4 6 -3 8 4 4 5 -3 13 0 15 6 4 10 6 10 6 0 1 -7 6 -10 11 -7 6 3 10 1 10
-4 0 -6 5 -11 11 -11 5 0 8 4 4 9 -3 5 0 13 6 17 8 4 9 3 5 -5 -11 -17 22 -25
48 -12 12 7 28 11 35 9 8 -2 16 3 19 11 3 9 0 11 -8 6 -9 -6 -11 -4 -5 5 6 10
12 7 26 -11 9 -13 17 -28 16 -34 -1 -5 4 -9 11 -7 6 1 12 -4 12 -10 0 -9 4 -8
10 2 5 8 10 11 10 6 0 -5 7 -3 15 4 12 10 18 10 32 -1 10 -8 14 -9 10 -2 -11
18 55 11 70 -7 6 -8 15 -12 19 -7 4 4 2 7 -4 7 -7 0 -12 4 -12 9 0 5 11 9 25
9 13 0 23 -3 21 -7 -3 -4 4 -7 14 -7 10 0 16 4 14 8 -3 4 2 8 11 8 10 0 13 -5
9 -12 -5 -8 -3 -8 7 -2 8 5 22 9 31 9 25 0 23 20 -2 21 -11 1 -20 -4 -20 -10
0 -7 -3 -7 -8 -1 -9 12 -44 16 -36 4 3 -5 0 -9 -5 -9 -6 0 -11 5 -11 11 0 8
-5 8 -15 -1 -9 -7 -15 -8 -15 -2 0 11 -18 11 -38 -2 -8 -4 -11 -3 -10 5 2 6
-3 14 -11 17 -8 2 -11 0 -7 -6 3 -6 1 -14 -5 -18 -8 -5 -9 -3 -4 6 5 8 4 11
-3 6 -6 -3 -14 -1 -18 5 -4 7 -3 9 4 5 5 -3 12 0 15 6 3 10 9 10 27 0 20 -12
22 -12 17 0 -3 8 1 15 8 15 7 0 11 -6 9 -12 -3 -7 7 -11 26 -11 21 0 32 5 36
19 5 16 8 17 15 6 8 -12 11 -12 20 1 8 12 9 9 4 -10 -6 -20 -5 -22 5 -13 7 6
19 9 27 6 8 -3 13 0 11 7 -2 7 5 14 15 15 9 2 15 -1 11 -6 -8 -13 10 -11 25 4
11 10 13 10 7 0 -4 -7 -2 -13 3 -13 6 0 11 5 11 12 0 6 2 9 5 6 3 -3 3 -12 -1
-21 -5 -15 -32 -16 -53 -2 -5 3 -12 1 -15 -4 -3 -5 1 -12 10 -15 8 -3 12 -10
9 -16 -3 -5 -1 -10 5 -10 7 0 10 6 7 13 -3 8 1 14 9 14 10 0 12 -7 9 -21 -5
-19 -4 -19 8 2 l13 23 30 -23 c16 -12 23 -15 17 -7 -7 9 -10 19 -6 22 9 9 23
9 22 0 -3 -20 2 -33 12 -33 8 0 9 4 0 13 -11 14 -5 27 11 27 5 0 6 -4 3 -10
-3 -5 -1 -10 4 -10 17 0 13 11 -11 37 -12 13 -17 23 -11 23 6 0 14 -6 17 -12
5 -10 7 -10 12 0 3 6 11 12 17 12 8 0 7 -4 -1 -12 -7 -7 -12 -16 -12 -21 0
-14 21 4 30 27 7 18 9 18 9 3 1 -14 6 -17 21 -12 11 3 20 3 20 -2 0 -5 9 -9
21 -10 17 -2 18 1 9 13 -9 10 -9 14 -1 14 6 0 11 -4 11 -10 0 -5 5 -10 11 -10
5 0 8 4 5 8 -2 4 6 8 19 8 13 0 21 -4 19 -8 -3 -4 2 -8 11 -8 10 0 13 5 9 12
-4 7 -3 8 4 4 7 -4 12 -2 12 5 0 7 3 10 6 6 9 -9 -19 -42 -38 -45 -9 -1 -19 2
-23 8 -4 6 -17 4 -37 -6 -16 -9 -27 -11 -24 -6 3 6 -2 9 -11 7 -10 -1 -25 1
-34 6 -23 12 -31 0 -13 -19 11 -10 18 -12 26 -4 8 8 15 6 26 -5 14 -14 17 -14
27 1 7 9 20 16 31 16 17 0 17 0 0 -13 -16 -12 -16 -14 -2 -14 9 0 16 4 16 9 0
4 5 8 11 8 5 0 7 -6 3 -12 -6 -10 -4 -10 7 -2 8 6 24 10 37 8 14 -3 22 1 22
11 0 8 -5 15 -11 15 -5 0 -7 -5 -3 -12 5 -7 3 -8 -6 -3 -10 6 -9 11 6 22 10 8
18 18 17 23 -1 4 7 5 19 2 l22 -5 -22 -8 c-28 -11 -28 -17 1 -28 12 -5 26 -10
31 -12 5 -2 11 7 12 21 3 22 2 23 -9 8 -8 -10 -18 -13 -26 -9 -9 6 -7 10 9 14
12 3 20 10 16 15 -3 5 1 9 8 9 9 0 13 -9 11 -24 -2 -23 9 -28 39 -17 9 3 13
10 10 16 -3 5 -11 5 -19 -2 -10 -9 -13 -7 -11 7 2 13 12 18 32 18 16 0 35 4
42 8 7 5 12 5 11 0 -3 -18 2 -33 11 -33 6 0 9 3 9 8 -4 24 2 34 14 23 10 -8
17 -7 26 2 10 9 11 9 6 -4 -4 -10 0 -16 10 -16 10 0 14 6 10 16 -3 8 -3 12 1
8 4 -4 13 -2 21 5 11 9 13 8 11 -2 -2 -10 8 -14 35 -15 26 -1 36 3 33 12 -3 7
1 10 9 7 7 -3 23 0 35 6 15 8 20 8 16 1 -4 -6 0 -11 9 -11 9 0 14 4 11 8 -7
12 36 12 51 0 8 -6 17 -8 20 -4 4 4 1 11 -7 16 -9 6 -10 10 -3 10 14 0 23 -12
28 -40 4 -22 -10 -28 -18 -7 -3 9 -9 8 -22 -4 -14 -14 -15 -17 -1 -22 11 -4
13 -1 9 11 -6 14 -4 15 9 4 8 -7 23 -9 33 -6 13 5 14 9 3 15 -10 7 -10 9 0 9
10 0 10 5 2 20 -7 14 -7 20 0 20 5 0 10 -7 10 -15 0 -8 4 -15 9 -15 6 0 8 8 6
18 -2 11 3 19 13 20 10 1 28 3 42 4 14 2 30 6 36 11 14 8 26 -17 18 -37 -3 -8
-1 -17 5 -21 7 -4 8 1 4 12 -5 15 -3 16 8 6 18 -18 32 -16 25 2 -7 20 3 19 28
-2 20 -17 20 -17 7 0 -17 21 -8 22 23 1 17 -10 26 -12 31 -4 3 6 3 10 -2 9
-19 -3 -33 2 -33 11 0 6 11 8 25 6 16 -3 23 -1 19 5 -6 11 28 8 36 -2 3 -4 14
5 24 19 12 15 14 22 5 17 -12 -8 -12 -6 0 8 8 10 9 17 3 17 -6 0 -17 -8 -24
-17 -17 -24 -44 -27 -52 -7 -6 15 -4 15 11 3 15 -12 16 -12 9 6 -4 11 -4 16 0
12 4 -4 13 -2 21 4 7 6 13 8 13 4 0 -4 6 -3 13 3 10 8 16 6 26 -10 10 -16 10
-19 -1 -12 -9 6 -9 2 2 -12 8 -10 16 -21 18 -24 2 -2 1 7 -2 21 -4 23 -1 27
22 27 24 0 25 -1 7 -14 -10 -8 -14 -14 -9 -14 6 0 14 3 18 8 4 4 13 7 19 7 13
0 18 53 5 61 -6 4 -7 -7 -5 -25 3 -17 2 -29 -2 -26 -13 7 -7 60 6 60 6 0 14 3
18 7 4 4 13 4 21 1 8 -3 14 1 14 8 0 11 2 11 9 -1 11 -16 4 -33 -10 -25 -5 3
-6 -1 -3 -9 8 -21 20 -20 44 4 24 24 25 36 4 44 -15 6 -15 4 -3 -11 9 -11 10
-14 2 -9 -9 5 -11 2 -7 -8 3 -9 2 -16 -3 -16 -4 0 -9 13 -9 29 -1 21 3 30 15
30 41 2 52 5 48 16 -3 6 4 12 14 12 10 1 20 -2 20 -8 1 -5 2 -13 3 -18 0 -5 5
-13 10 -18 5 -5 6 -3 2 5 -9 15 -1 15 27 1 19 -8 20 -8 7 3 -9 7 -15 18 -15
25 0 15 15 30 15 15 0 -22 16 -12 17 10 2 16 0 19 -6 10 -5 -8 -11 -13 -15
-13 -22 3 -27 -1 -21 -16 5 -14 3 -15 -5 -7 -14 14 5 58 21 48 13 -8 40 16 32
29 -3 6 -1 7 6 3 6 -4 14 0 17 8 3 9 10 13 15 10 5 -3 9 3 9 13 0 15 2 16 10
3 9 -15 11 -13 14 12 1 14 26 24 26 10 0 -5 -7 -15 -15 -22 -9 -7 -13 -20 -10
-28 4 -11 2 -12 -8 -4 -8 7 -18 7 -27 2 -13 -9 -13 -10 0 -10 13 0 13 -2 0 -9
-8 -6 -17 -8 -21 -5 -4 2 -10 0 -13 -5 -3 -5 1 -11 9 -15 8 -3 15 -1 15 5 0 6
4 8 9 5 5 -3 11 1 15 9 3 9 12 12 21 8 11 -4 16 -1 15 8 -4 27 0 39 13 36 6
-1 11 4 9 11 -2 10 4 12 20 7 18 -4 17 -2 -6 11 -21 12 -25 19 -16 27 9 9 15
7 26 -7 12 -17 14 -17 14 -4 0 9 -5 20 -10 23 -8 5 -7 11 1 21 10 12 15 12 38
-2 l26 -17 -23 25 c-22 24 -22 25 -4 41 10 10 22 14 25 10 6 -6 11 12 8 30 -3
18 31 18 45 1 14 -18 14 -18 4 4 -6 13 -13 32 -15 43 -3 16 -1 17 14 9 18 -9
31 -4 31 12 0 4 -5 8 -11 8 -5 0 -7 -6 -3 -12 4 -7 3 -9 -1 -5 -26 23 -7 42
23 24 6 -5 12 -4 12 1 0 6 -7 12 -15 16 -12 4 -13 10 -3 31 6 14 16 25 21 25
5 0 4 -8 -4 -17 -12 -16 -11 -16 7 0 16 15 17 19 4 27 -10 7 -11 10 -3 10 7 0
12 3 11 8 -1 4 1 22 5 40 4 21 12 32 24 32 14 0 15 2 4 9 -11 7 -11 10 0 15
11 4 11 7 2 12 -10 4 -10 8 0 19 7 7 17 10 22 7 6 -3 7 -1 2 3 -4 5 1 18 10
29 18 21 18 21 -4 2 -21 -17 -34 -10 -15 8 7 8 9 14 11 47 0 11 5 18 10 14 5
-3 13 0 17 6 4 7 3 9 -4 5 -6 -3 -14 -1 -18 5 -3 6 0 15 7 20 8 5 10 9 5 9 -5
0 -3 7 4 15 11 13 10 14 -6 9 -15 -6 -17 -4 -7 6 6 7 9 19 6 28 -4 9 -2 13 4
9 5 -3 10 0 10 8 0 8 -3 12 -7 10 -4 -2 -6 5 -5 16 1 11 8 25 16 30 8 5 9 9 2
9 -14 0 -22 118 -8 124 6 3 4 5 -2 5 -7 1 -13 6 -13 12 0 5 5 7 11 3 8 -4 8 0
0 15 -9 16 -9 21 1 21 9 0 10 3 2 8 -6 4 -10 17 -9 30 1 12 -1 22 -4 22 -4 0
-7 13 -7 30 -1 19 2 28 10 24 6 -3 3 1 -6 9 -14 11 -15 16 -5 27 9 10 9 11 -1
5 -10 -5 -12 0 -9 24 3 18 1 31 -5 31 -6 0 -8 9 -5 20 3 11 1 20 -4 20 -4 0
-6 7 -3 15 4 8 1 22 -6 30 -10 12 -10 15 1 15 10 0 11 2 2 8 -6 4 -13 19 -15
32 -2 14 -7 31 -11 38 -5 7 -3 12 5 12 10 0 10 2 1 8 -7 4 -14 18 -16 30 -4
26 -20 45 -30 35z m-576 -1637 c5 3 9 1 9 -4 0 -6 -11 -9 -24 -8 -19 1 -22 4
-13 15 8 9 12 10 15 2 2 -6 8 -9 13 -5z m-154 -33 c-4 -3 0 -15 10 -25 18 -20
18 -20 -17 -22 -14 0 -32 -5 -40 -10 -12 -8 -13 -7 -3 5 9 11 10 18 1 27 -8 8
-6 10 5 8 9 -1 20 -5 23 -9 13 -13 27 -7 15 6 -10 12 -6 27 7 27 3 0 2 -3 -1
-7z m-77 -34 c0 -5 6 -7 13 -3 6 4 4 -2 -6 -13 -9 -11 -14 -23 -10 -28 5 -4 2
-5 -5 -1 -7 4 -10 11 -7 16 3 5 1 11 -5 15 -12 7 -4 25 11 25 5 0 9 -5 9 -11z
m-1240 -89 c0 -5 -8 -10 -17 -10 -15 0 -16 2 -3 10 19 12 20 12 20 0z m212 -2
c-18 -18 -15 -33 3 -18 13 10 18 11 28 1 9 -10 8 -11 -4 -6 -10 4 -20 2 -23
-4 -4 -6 -13 -8 -21 -5 -11 5 -12 10 -2 25 6 10 16 19 21 19 6 0 5 -5 -2 -12z
m-357 -8 c3 5 11 10 16 10 22 0 -42 -54 -65 -56 -14 0 -23 3 -20 8 3 5 1 15
-5 22 -8 9 -7 13 4 13 8 0 11 -5 8 -10 -4 -6 0 -8 9 -4 9 3 21 0 27 -6 15 -15
14 5 -1 23 -11 12 -10 12 4 2 11 -9 18 -10 23 -2z m-165 -15 c-7 -8 -17 -15
-22 -15 -11 0 14 29 26 30 5 0 3 -7 -4 -15z m-460 -139 c0 -3 -4 -8 -10 -11
-5 -3 -10 -1 -10 4 0 6 5 11 10 11 6 0 10 -2 10 -4z m-336 -174 c3 -5 -1 -9
-9 -9 -8 0 -12 4 -9 9 3 4 7 8 9 8 2 0 6 -4 9 -8z m-64 -42 c-10 -19 -27 -33
-45 -36 -5 -1 -19 -5 -30 -9 l-20 -7 20 13 c11 7 26 19 33 26 8 7 18 11 23 8
8 -6 13 9 10 28 -1 5 3 6 9 2 7 -4 7 -12 0 -25z"/>
<path d="M1536 1422 c-3 -5 1 -9 9 -9 8 0 12 4 9 9 -3 4 -7 8 -9 8 -2 0 -6 -4
-9 -8z"/>
<path d="M3826 2232 c-2 -4 -1 -14 3 -21 6 -9 11 -10 15 -2 4 6 1 11 -6 11 -9
0 -9 3 2 10 9 6 10 10 3 10 -6 0 -14 -4 -17 -8z"/>
<path d="M3730 2037 c0 -2 6 -10 14 -16 11 -9 16 -9 22 1 4 7 4 10 -1 6 -4 -4
-14 -3 -22 3 -7 6 -13 9 -13 6z"/>
<path d="M3700 1996 c0 -2 8 -10 18 -17 15 -13 16 -12 3 4 -13 16 -21 21 -21
13z"/>
<path d="M3695 1960 c-4 -6 -10 -8 -15 -5 -4 3 -13 -1 -19 -9 -9 -10 -8 -15 4
-19 9 -4 19 2 25 14 6 11 16 16 22 13 7 -4 8 -3 4 4 -9 15 -13 15 -21 2z"/>
<path d="M3625 1900 c-3 -5 0 -10 9 -10 8 0 17 -6 19 -12 4 -8 6 -9 6 -2 1 18
-26 37 -34 24z"/>
<path d="M3386 1695 c-3 -8 -11 -14 -17 -13 -6 2 -12 -10 -14 -27 -2 -16 -1
-24 2 -17 3 6 9 10 14 6 5 -3 9 -2 8 3 -3 20 2 34 11 28 6 -4 7 -11 4 -17 -4
-7 -2 -8 5 -4 9 6 9 11 1 21 -8 10 -8 14 2 17 8 3 9 6 1 11 -6 4 -14 0 -17 -8z"/>
<path d="M3259 1649 c0 -2 -2 -12 -4 -21 -2 -10 1 -18 6 -18 6 0 8 -4 5 -8 -3
-5 1 -9 9 -9 8 0 11 5 7 11 -3 6 -7 17 -8 24 -2 14 -13 29 -15 21z"/>
<path d="M2848 1514 c-12 -7 -19 -13 -14 -14 5 0 3 -6 -3 -13 -8 -11 -5 -16
17 -26 23 -10 25 -10 10 2 -21 17 -23 28 -5 25 6 -2 18 -12 25 -23 12 -19 13
-19 6 4 -4 15 -2 21 4 17 10 -6 42 19 42 33 0 12 -56 9 -82 -5z m64 -6 c-15
-15 -42 -19 -42 -6 0 6 7 8 15 5 8 -4 17 -2 20 3 4 6 9 10 13 10 3 0 1 -5 -6
-12z"/>
<path d="M2704 1485 c-5 -11 -11 -12 -25 -4 -13 7 -26 6 -41 -3 -13 -7 -29
-11 -35 -10 -7 2 -13 -2 -13 -9 0 -8 -4 -8 -15 1 -8 7 -15 9 -15 5 0 -4 -6 -2
-14 4 -10 9 -15 8 -19 -3 -6 -15 -24 -15 -61 0 -13 5 -17 4 -12 -4 10 -16 -16
-27 -28 -11 -6 8 -22 15 -35 17 -19 2 -22 0 -12 -12 10 -11 7 -17 -11 -30 -12
-9 -17 -16 -11 -16 7 0 15 5 18 10 4 6 11 7 17 4 6 -4 5 -10 -3 -16 -12 -8
-12 -9 0 -6 8 2 15 12 17 21 1 10 -2 14 -8 11 -7 -4 -8 -2 -4 4 4 6 13 9 21 6
8 -4 12 -10 9 -15 -3 -5 3 -6 12 -2 10 4 15 2 11 -4 -3 -5 0 -10 8 -10 11 0
12 4 4 14 -8 9 -8 13 -1 13 6 0 13 -4 17 -10 3 -5 13 -6 22 -3 12 5 14 3 8 -8
-5 -8 1 -6 13 5 12 10 19 24 15 30 -3 7 -1 6 7 -1 10 -10 11 -15 1 -27 -8 -10
-9 -16 -1 -21 6 -4 9 -1 8 6 -2 7 2 13 9 14 6 0 15 3 19 8 4 4 15 0 24 -8 14
-13 17 -13 17 0 0 8 -4 12 -8 9 -4 -2 -10 0 -13 5 -3 5 6 12 22 16 46 13 72
14 72 3 0 -6 -7 -8 -15 -5 -8 4 -17 2 -20 -4 -4 -5 -11 -7 -16 -4 -5 4 -9 1
-9 -4 0 -14 13 -14 28 1 9 9 12 9 12 0 0 -20 18 -14 25 9 4 11 9 18 12 15 9
-9 44 14 38 25 -9 14 -35 11 -41 -6z m-129 -34 c3 -5 2 -12 -3 -15 -5 -3 -9 1
-9 9 0 17 3 19 12 6z m-85 -11 c0 -5 -2 -10 -4 -10 -3 0 -8 5 -11 10 -3 6 -1
10 4 10 6 0 11 -4 11 -10z m40 4 c0 -8 -19 -13 -24 -6 -3 5 1 9 9 9 8 0 15 -2
15 -3z"/>
<path d="M1750 1440 c0 -5 5 -10 11 -10 5 0 7 5 4 10 -3 6 -8 10 -11 10 -2 0
-4 -4 -4 -10z"/>
<path d="M1476 1423 c-4 -5 -18 -8 -29 -8 -26 0 -31 -36 -7 -42 13 -4 13 -3 0
6 -13 9 -13 11 2 11 9 0 18 -3 21 -7 2 -5 2 -2 1 5 -5 18 14 15 25 -5 8 -15 9
-13 7 10 -3 31 -9 40 -20 30z"/>
<path d="M2020 1420 c0 -5 5 -10 11 -10 5 0 7 5 4 10 -3 6 -8 10 -11 10 -2 0
-4 -4 -4 -10z"/>
<path d="M1315 1410 c-6 -9 8 -14 28 -11 5 1 6 -3 2 -8 -3 -6 -13 -8 -23 -5
-14 5 -15 4 -2 -5 10 -7 11 -11 3 -11 -7 0 -13 -5 -13 -12 0 -6 7 -5 18 5 15
13 21 14 32 4 12 -10 12 -9 1 6 -15 19 -2 24 17 5 9 -9 12 -9 12 3 0 12 2 12
10 -1 8 -13 10 -12 10 3 0 14 -5 17 -21 12 -16 -5 -19 -4 -14 5 5 9 4 11 -3 6
-6 -4 -20 -2 -31 4 -13 7 -22 7 -26 0z"/>
<path d="M2268 1413 c6 -2 9 -10 6 -15 -4 -7 -2 -8 5 -4 13 9 5 26 -12 25 -9
0 -8 -2 1 -6z"/>
<path d="M1910 1403 c0 -6 8 -17 18 -24 16 -13 16 -13 2 6 -8 11 -16 22 -17
24 -2 2 -3 0 -3 -6z"/>
<path d="M2030 1396 c0 -2 8 -10 18 -17 15 -13 16 -12 3 4 -13 16 -21 21 -21
13z"/>
<path d="M1570 1379 c0 -5 5 -7 10 -4 6 3 10 8 10 11 0 2 -4 4 -10 4 -5 0 -10
-5 -10 -11z"/>
<path d="M1080 1364 c0 -5 6 -18 13 -29 10 -13 16 -15 21 -6 5 7 5 15 2 18 -3
4 -6 0 -6 -8 -1 -8 -7 -3 -15 11 -8 14 -14 20 -15 14z"/>
<path d="M1210 1356 c0 -2 7 -7 16 -10 8 -3 12 -2 9 4 -6 10 -25 14 -25 6z"/>
<path d="M1150 1340 c0 -5 5 -10 10 -10 6 0 10 5 10 10 0 6 -4 10 -10 10 -5 0
-10 -4 -10 -10z"/>
<path d="M810 1266 c0 -2 7 -7 16 -10 8 -3 12 -2 9 4 -6 10 -25 14 -25 6z"/>
<path d="M873 1243 c4 -3 1 -13 -6 -22 -11 -14 -10 -14 6 -2 20 15 22 31 5 31
-6 0 -8 -3 -5 -7z"/>
<path d="M650 1119 c0 -5 5 -7 10 -4 6 3 10 8 10 11 0 2 -4 4 -10 4 -5 0 -10
-5 -10 -11z"/>
<path d="M468 998 c-12 -10 -17 -18 -13 -18 4 0 0 -9 -10 -20 -10 -11 -21 -17
-26 -15 -4 3 -11 0 -15 -7 -4 -7 -4 -10 1 -6 4 4 16 3 26 -3 15 -8 17 -6 12 7
-4 12 -3 15 6 10 7 -4 10 -3 9 5 -2 6 3 14 11 17 9 3 11 0 6 -8 -5 -9 -4 -11
4 -6 9 6 9 11 1 21 -7 9 -6 16 7 26 15 12 16 12 10 -3 -8 -24 0 -23 12 0 8 14
6 19 -5 19 -8 0 -24 -9 -36 -19z"/>
</g>
</svg>
