<svg width="17" height="17" viewBox="0 0 17 17" fill="none" xmlns="http://www.w3.org/2000/svg">
<path d="M8.14281 10.517C9.13988 10.517 9.94816 9.70872 9.94816 8.71166C9.94816 7.71459 9.13988 6.90631 8.14281 6.90631C7.14574 6.90631 6.33746 7.71459 6.33746 8.71166C6.33746 9.70872 7.14574 10.517 8.14281 10.517Z" stroke="#3B2D55" stroke-width="1.5" stroke-miterlimit="10" stroke-linecap="round" stroke-linejoin="round"/>
<path d="M2.125 9.24153V8.1824C2.125 7.55654 2.63652 7.03901 3.26839 7.03901C4.35761 7.03901 4.80293 6.26873 4.25531 5.32393C3.94238 4.78233 4.12894 4.07824 4.67656 3.76531L5.71764 3.16955C6.19305 2.88671 6.80687 3.05521 7.08971 3.53062L7.1559 3.64496C7.69751 4.58975 8.58814 4.58975 9.13577 3.64496L9.20196 3.53062C9.4848 3.05521 10.0986 2.88671 10.574 3.16955L11.6151 3.76531C12.1627 4.07824 12.3493 4.78233 12.0364 5.32393C11.4887 6.26873 11.9341 7.03901 13.0233 7.03901C13.6491 7.03901 14.1667 7.55052 14.1667 8.1824V9.24153C14.1667 9.86739 13.6552 10.3849 13.0233 10.3849C11.9341 10.3849 11.4887 11.1552 12.0364 12.1C12.3493 12.6476 12.1627 13.3457 11.6151 13.6586L10.574 14.2544C10.0986 14.5372 9.4848 14.3687 9.20196 13.8933L9.13577 13.779C8.59416 12.8342 7.70352 12.8342 7.1559 13.779L7.08971 13.8933C6.80687 14.3687 6.19305 14.5372 5.71764 14.2544L4.67656 13.6586C4.12894 13.3457 3.94238 12.6416 4.25531 12.1C4.80293 11.1552 4.35761 10.3849 3.26839 10.3849C2.63652 10.3849 2.125 9.86739 2.125 9.24153Z" stroke="#3B2D55" stroke-width="1.5" stroke-miterlimit="10" stroke-linecap="round" stroke-linejoin="round"/>
</svg>
