<svg width="51" height="55" viewBox="0 0 51 55" fill="none" xmlns="http://www.w3.org/2000/svg">
<path d="M0.0561523 6.85358C0.0561523 3.0734 3.12956 0 6.90974 0H24.0437V13.7072C24.0437 15.6026 25.575 17.134 27.4705 17.134H41.1777V47.9751C41.1777 51.7553 38.1042 54.8287 34.3241 54.8287H6.90974C3.12956 54.8287 0.0561523 51.7553 0.0561523 47.9751V6.85358ZM41.1777 13.7072H27.4705V0L41.1777 13.7072Z" fill="#E8E8E8"/>
<circle cx="40.6637" cy="44.7198" r="10.2804" fill="#C1C1C1"/>
<g clip-path="url(#clip0_1623_2451)">
<path d="M41.1297 39.3341C40.9264 39.1308 40.5978 39.1308 40.3967 39.3341L37.6267 42.1019C37.4234 42.3051 37.4234 42.6338 37.6267 42.8349C37.83 43.036 38.1586 43.0382 38.3597 42.8349L40.241 40.9537L40.2431 46.2752C40.2431 46.5628 40.4745 46.7942 40.7621 46.7942C41.0497 46.7942 41.2811 46.5628 41.2811 46.2752V40.9537L43.1623 42.8349C43.3656 43.0382 43.6942 43.0382 43.8953 42.8349C44.0964 42.6317 44.0986 42.303 43.8953 42.1019L41.1297 39.3341ZM36.9564 46.6212C36.9564 46.3336 36.725 46.1022 36.4374 46.1022C36.1498 46.1022 35.9185 46.3336 35.9185 46.6212V48.351C35.9185 49.4019 36.7704 50.2539 37.8213 50.2539H43.7029C44.7538 50.2539 45.6057 49.4019 45.6057 48.351V46.6212C45.6057 46.3336 45.3744 46.1022 45.0868 46.1022C44.7992 46.1022 44.5678 46.3336 44.5678 46.6212V48.351C44.5678 48.8289 44.1808 49.216 43.7029 49.216H37.8213C37.3434 49.216 36.9564 48.8289 36.9564 48.351V46.6212Z" fill="white"/>
</g>
<defs>
<clipPath id="clip0_1623_2451">
<rect width="9.68728" height="11.0712" fill="white" transform="translate(35.9185 39.1836)"/>
</clipPath>
</defs>
</svg>