<svg width="1178" height="180" viewBox="0 0 1178 180" fill="none" xmlns="http://www.w3.org/2000/svg">
<g clip-path="url(#clip0_27_5)">
<rect width="1178" height="180" rx="10" fill="#D7FAFF"/>
<rect width="32" height="32" fill="#C2EAFF"/>
<rect y="64" width="32" height="32" fill="#C2EAFF"/>
<rect y="128" width="32" height="32" fill="#C2EAFF"/>
<rect x="32" y="32" width="32" height="32" fill="#C2EAFF"/>
<rect x="32" y="96" width="32" height="32" fill="#C2EAFF"/>
<rect x="32" y="160" width="32" height="32" fill="#C2EAFF"/>
<rect x="64" width="32" height="32" fill="#C2EAFF"/>
<rect x="64" y="64" width="32" height="32" fill="#C2EAFF"/>
<rect x="64" y="128" width="32" height="32" fill="#C2EAFF"/>
<rect x="96" y="32" width="32" height="32" fill="#C2EAFF"/>
<rect x="96" y="96" width="32" height="32" fill="#C2EAFF"/>
<rect x="96" y="160" width="32" height="32" fill="#C2EAFF"/>
<rect x="128" width="32" height="32" fill="#C2EAFF"/>
<rect x="128" y="64" width="32" height="32" fill="#C2EAFF"/>
<rect x="128" y="128" width="32" height="32" fill="#C2EAFF"/>
<rect x="160" y="32" width="32" height="32" fill="#C2EAFF"/>
<rect x="160" y="96" width="32" height="32" fill="#C2EAFF"/>
<rect x="160" y="160" width="32" height="32" fill="#C2EAFF"/>
<rect x="192" width="32" height="32" fill="#C2EAFF"/>
<rect x="192" y="64" width="32" height="32" fill="#C2EAFF"/>
<rect x="192" y="128" width="32" height="32" fill="#C2EAFF"/>
<rect x="224" y="32" width="32" height="32" fill="#C2EAFF"/>
<rect x="224" y="96" width="32" height="32" fill="#C2EAFF"/>
<rect x="224" y="160" width="32" height="32" fill="#C2EAFF"/>
<rect x="256" width="32" height="32" fill="#C2EAFF"/>
<rect x="256" y="64" width="32" height="32" fill="#C2EAFF"/>
<rect x="256" y="128" width="32" height="32" fill="#C2EAFF"/>
<rect x="288" y="32" width="32" height="32" fill="#C2EAFF"/>
<rect x="288" y="96" width="32" height="32" fill="#C2EAFF"/>
<rect x="288" y="160" width="32" height="32" fill="#C2EAFF"/>
<rect x="320" width="32" height="32" fill="#C2EAFF"/>
<rect x="320" y="64" width="32" height="32" fill="#C2EAFF"/>
<rect x="320" y="128" width="32" height="32" fill="#C2EAFF"/>
<rect x="352" y="32" width="32" height="32" fill="#C2EAFF"/>
<rect x="352" y="96" width="32" height="32" fill="#C2EAFF"/>
<rect x="352" y="160" width="32" height="32" fill="#C2EAFF"/>
<rect x="384" width="32" height="32" fill="#C2EAFF"/>
<rect x="384" y="64" width="32" height="32" fill="#C2EAFF"/>
<rect x="384" y="128" width="32" height="32" fill="#C2EAFF"/>
<rect x="416" y="32" width="32" height="32" fill="#C2EAFF"/>
<rect x="416" y="96" width="32" height="32" fill="#C2EAFF"/>
<rect x="416" y="160" width="32" height="32" fill="#C2EAFF"/>
<rect x="448" width="32" height="32" fill="#C2EAFF"/>
<rect x="448" y="64" width="32" height="32" fill="#C2EAFF"/>
<rect x="448" y="128" width="32" height="32" fill="#C2EAFF"/>
<rect x="480" y="32" width="32" height="32" fill="#C2EAFF"/>
<rect x="480" y="96" width="32" height="32" fill="#C2EAFF"/>
<rect x="480" y="160" width="32" height="32" fill="#C2EAFF"/>
<rect x="512" width="32" height="32" fill="#C2EAFF"/>
<rect x="512" y="64" width="32" height="32" fill="#C2EAFF"/>
<rect x="512" y="128" width="32" height="32" fill="#C2EAFF"/>
<rect x="544" y="32" width="32" height="32" fill="#C2EAFF"/>
<rect x="544" y="96" width="32" height="32" fill="#C2EAFF"/>
<rect x="544" y="160" width="32" height="32" fill="#C2EAFF"/>
<rect x="576" width="32" height="32" fill="#C2EAFF"/>
<rect x="576" y="64" width="32" height="32" fill="#C2EAFF"/>
<rect x="576" y="128" width="32" height="32" fill="#C2EAFF"/>
<rect x="608" y="32" width="32" height="32" fill="#C2EAFF"/>
<rect x="608" y="96" width="32" height="32" fill="#C2EAFF"/>
<rect x="608" y="160" width="32" height="32" fill="#C2EAFF"/>
<rect x="640" width="32" height="32" fill="#C2EAFF"/>
<rect x="640" y="64" width="32" height="32" fill="#C2EAFF"/>
<rect x="640" y="128" width="32" height="32" fill="#C2EAFF"/>
<rect x="672" y="32" width="32" height="32" fill="#C2EAFF"/>
<rect x="672" y="96" width="32" height="32" fill="#C2EAFF"/>
<rect x="672" y="160" width="32" height="32" fill="#C2EAFF"/>
<rect x="704" width="32" height="32" fill="#C2EAFF"/>
<rect x="704" y="64" width="32" height="32" fill="#C2EAFF"/>
<rect x="704" y="128" width="32" height="32" fill="#C2EAFF"/>
<rect x="736" y="32" width="32" height="32" fill="#C2EAFF"/>
<rect x="736" y="96" width="32" height="32" fill="#C2EAFF"/>
<rect x="736" y="160" width="32" height="32" fill="#C2EAFF"/>
<rect x="768" width="32" height="32" fill="#C2EAFF"/>
<rect x="768" y="64" width="32" height="32" fill="#C2EAFF"/>
<rect x="768" y="128" width="32" height="32" fill="#C2EAFF"/>
<rect x="800" y="32" width="32" height="32" fill="#C2EAFF"/>
<rect x="800" y="96" width="32" height="32" fill="#C2EAFF"/>
<rect x="800" y="160" width="32" height="32" fill="#C2EAFF"/>
<rect x="832" width="32" height="32" fill="#C2EAFF"/>
<rect x="832" y="64" width="32" height="32" fill="#C2EAFF"/>
<rect x="832" y="128" width="32" height="32" fill="#C2EAFF"/>
<rect x="864" y="32" width="32" height="32" fill="#C2EAFF"/>
<rect x="864" y="96" width="32" height="32" fill="#C2EAFF"/>
<rect x="864" y="160" width="32" height="32" fill="#C2EAFF"/>
<rect x="896" width="32" height="32" fill="#C2EAFF"/>
<rect x="896" y="64" width="32" height="32" fill="#C2EAFF"/>
<rect x="896" y="128" width="32" height="32" fill="#C2EAFF"/>
<rect x="928" y="32" width="32" height="32" fill="#C2EAFF"/>
<rect x="928" y="96" width="32" height="32" fill="#C2EAFF"/>
<rect x="928" y="160" width="32" height="32" fill="#C2EAFF"/>
<rect x="960" width="32" height="32" fill="#C2EAFF"/>
<rect x="960" y="64" width="32" height="32" fill="#C2EAFF"/>
<rect x="960" y="128" width="32" height="32" fill="#C2EAFF"/>
<rect x="992" y="32" width="32" height="32" fill="#C2EAFF"/>
<rect x="992" y="96" width="32" height="32" fill="#C2EAFF"/>
<rect x="992" y="160" width="32" height="32" fill="#C2EAFF"/>
<rect x="1024" width="32" height="32" fill="#C2EAFF"/>
<rect x="1024" y="64" width="32" height="32" fill="#C2EAFF"/>
<rect x="1024" y="128" width="32" height="32" fill="#C2EAFF"/>
<rect x="1056" y="32" width="32" height="32" fill="#C2EAFF"/>
<rect x="1056" y="96" width="32" height="32" fill="#C2EAFF"/>
<rect x="1056" y="160" width="32" height="32" fill="#C2EAFF"/>
<rect x="1088" width="32" height="32" fill="#C2EAFF"/>
<rect x="1088" y="64" width="32" height="32" fill="#C2EAFF"/>
<rect x="1088" y="128" width="32" height="32" fill="#C2EAFF"/>
<rect x="1120" y="32" width="32" height="32" fill="#C2EAFF"/>
<rect x="1120" y="96" width="32" height="32" fill="#C2EAFF"/>
<rect x="1120" y="160" width="32" height="32" fill="#C2EAFF"/>
<rect x="1152" width="32" height="32" fill="#C2EAFF"/>
<rect x="1152" y="64" width="32" height="32" fill="#C2EAFF"/>
<rect x="1152" y="128" width="32" height="32" fill="#C2EAFF"/>
</g>
<defs>
<clipPath id="clip0_27_5">
<rect width="1178" height="180" rx="10" fill="white"/>
</clipPath>
</defs>
</svg>
