<svg width="1178" height="180" viewBox="0 0 1178 180" fill="none" xmlns="http://www.w3.org/2000/svg">
<circle cx="28" cy="6" r="28" fill="#FFD5A8"/>
<circle cx="30" cy="62" r="28" fill="#FFD5A8"/>
<circle cx="30" cy="118" r="28" fill="#FFD5A8"/>
<circle cx="30" cy="174" r="28" fill="#FFD5A8"/>
<circle cx="84" cy="6" r="28" fill="#FFD5A8"/>
<circle cx="86" cy="62" r="28" fill="#FFD5A8"/>
<circle cx="86" cy="118" r="28" fill="#FFD5A8"/>
<circle cx="86" cy="174" r="28" fill="#FFD5A8"/>
<circle cx="140" cy="6" r="28" fill="#FFD5A8"/>
<circle cx="142" cy="62" r="28" fill="#FFD5A8"/>
<circle cx="142" cy="118" r="28" fill="#FFD5A8"/>
<circle cx="142" cy="174" r="28" fill="#FFD5A8"/>
<circle cx="196" cy="6" r="28" fill="#FFD5A8"/>
<circle cx="198" cy="62" r="28" fill="#FFD5A8"/>
<circle cx="198" cy="118" r="28" fill="#FFD5A8"/>
<circle cx="198" cy="174" r="28" fill="#FFD5A8"/>
<circle cx="252" cy="6" r="28" fill="#FFD5A8"/>
<circle cx="254" cy="62" r="28" fill="#FFD5A8"/>
<circle cx="254" cy="118" r="28" fill="#FFD5A8"/>
<circle cx="254" cy="174" r="28" fill="#FFD5A8"/>
<circle cx="308" cy="6" r="28" fill="#FFD5A8"/>
<circle cx="310" cy="62" r="28" fill="#FFD5A8"/>
<circle cx="310" cy="118" r="28" fill="#FFD5A8"/>
<circle cx="310" cy="174" r="28" fill="#FFD5A8"/>
<circle cx="364" cy="6" r="28" fill="#FFD5A8"/>
<circle cx="366" cy="62" r="28" fill="#FFD5A8"/>
<circle cx="366" cy="118" r="28" fill="#FFD5A8"/>
<circle cx="366" cy="174" r="28" fill="#FFD5A8"/>
<circle cx="420" cy="6" r="28" fill="#FFD5A8"/>
<circle cx="422" cy="62" r="28" fill="#FFD5A8"/>
<circle cx="422" cy="118" r="28" fill="#FFD5A8"/>
<circle cx="422" cy="174" r="28" fill="#FFD5A8"/>
<circle cx="476" cy="6" r="28" fill="#FFD5A8"/>
<circle cx="478" cy="62" r="28" fill="#FFD5A8"/>
<circle cx="478" cy="118" r="28" fill="#FFD5A8"/>
<circle cx="478" cy="174" r="28" fill="#FFD5A8"/>
<circle cx="532" cy="6" r="28" fill="#FFD5A8"/>
<circle cx="534" cy="62" r="28" fill="#FFD5A8"/>
<circle cx="534" cy="118" r="28" fill="#FFD5A8"/>
<circle cx="534" cy="174" r="28" fill="#FFD5A8"/>
<circle cx="588" cy="6" r="28" fill="#FFD5A8"/>
<circle cx="590" cy="62" r="28" fill="#FFD5A8"/>
<circle cx="590" cy="118" r="28" fill="#FFD5A8"/>
<circle cx="590" cy="174" r="28" fill="#FFD5A8"/>
<circle cx="644" cy="6" r="28" fill="#FFD5A8"/>
<circle cx="646" cy="62" r="28" fill="#FFD5A8"/>
<circle cx="646" cy="118" r="28" fill="#FFD5A8"/>
<circle cx="646" cy="174" r="28" fill="#FFD5A8"/>
<circle cx="700" cy="6" r="28" fill="#FFD5A8"/>
<circle cx="702" cy="62" r="28" fill="#FFD5A8"/>
<circle cx="702" cy="118" r="28" fill="#FFD5A8"/>
<circle cx="702" cy="174" r="28" fill="#FFD5A8"/>
<circle cx="756" cy="6" r="28" fill="#FFD5A8"/>
<circle cx="758" cy="62" r="28" fill="#FFD5A8"/>
<circle cx="758" cy="118" r="28" fill="#FFD5A8"/>
<circle cx="758" cy="174" r="28" fill="#FFD5A8"/>
<circle cx="980" cy="6" r="28" fill="#FFD5A8"/>
<circle cx="982" cy="62" r="28" fill="#FFD5A8"/>
<circle cx="982" cy="118" r="28" fill="#FFD5A8"/>
<circle cx="982" cy="174" r="28" fill="#FFD5A8"/>
<circle cx="1036" cy="6" r="28" fill="#FFD5A8"/>
<circle cx="1038" cy="62" r="28" fill="#FFD5A8"/>
<circle cx="1038" cy="118" r="28" fill="#FFD5A8"/>
<circle cx="1038" cy="174" r="28" fill="#FFD5A8"/>
<circle cx="1092" cy="6" r="28" fill="#FFD5A8"/>
<circle cx="1094" cy="62" r="28" fill="#FFD5A8"/>
<circle cx="1094" cy="118" r="28" fill="#FFD5A8"/>
<circle cx="1094" cy="174" r="28" fill="#FFD5A8"/>
<circle cx="1148" cy="6" r="28" fill="#FFD5A8"/>
<circle cx="1150" cy="62" r="28" fill="#FFD5A8"/>
<circle cx="1150" cy="118" r="28" fill="#FFD5A8"/>
<circle cx="1150" cy="174" r="28" fill="#FFD5A8"/>
<circle cx="924" cy="6" r="28" fill="#FFD5A8"/>
<circle cx="926" cy="62" r="28" fill="#FFD5A8"/>
<circle cx="926" cy="118" r="28" fill="#FFD5A8"/>
<circle cx="926" cy="174" r="28" fill="#FFD5A8"/>
<circle cx="868" cy="6" r="28" fill="#FFD5A8"/>
<circle cx="870" cy="62" r="28" fill="#FFD5A8"/>
<circle cx="870" cy="118" r="28" fill="#FFD5A8"/>
<circle cx="870" cy="174" r="28" fill="#FFD5A8"/>
<circle cx="812" cy="6" r="28" fill="#FFD5A8"/>
<circle cx="814" cy="62" r="28" fill="#FFD5A8"/>
<circle cx="814" cy="118" r="28" fill="#FFD5A8"/>
<circle cx="814" cy="174" r="28" fill="#FFD5A8"/>
</svg>
